PathFileType	3	(X/Y/Z)	D:\VICON_DB\Goncalves\Pilot01\09-03-2026\bw_sq_140_01.trc
DataRate	CameraRate	NumFrames	NumMarkers	Units	OrigDataRate	OrigDataStartFrame	OrigNumFrames
200.0	200.0	10	34	mm	200.0	685	913	
Frame#	Time	LASI			RASI			LPSI			RPSI			LTHI			LTHAP			LTHAD			LKNE			LKNM			LTIB			LTIAP			LTIAD			LANK			LMED			LHEE			LTOE			LFMH			LSMH			LVMH			RTHI			RTHAP			RTHAD			RKNE			RKNM			RTIB			RTIAP			RTIAD			RANK			RMED			RHEE			RTOE			RFMH			RSMH			RVMH			
		X1	Y1	Z1	X2	Y2	Z2	X3	Y3	Z3	X4	Y4	Z4	X5	Y5	Z5	X6	Y6	Z6	X7	Y7	Z7	X8	Y8	Z8	X9	Y9	Z9	X10	Y10	Z10	X11	Y11	Z11	X12	Y12	Z12	X13	Y13	Z13	X14	Y14	Z14	X15	Y15	Z15	X16	Y16	Z16	X17	Y17	Z17	X18	Y18	Z18	X19	Y19	Z19	X20	Y20	Z20	X21	Y21	Z21	X22	Y22	Z22	X23	Y23	Z23	X24	Y24	Z24	X25	Y25	Z25	X26	Y26	Z26	X27	Y27	Z27	X28	Y28	Z28	X29	Y29	Z29	X30	Y30	Z30	X31	Y31	Z31	X32	Y32	Z32	X33	Y33	Z33	X34	Y34	Z34	
685	3.42	68.341728	862.12579	-1095.3988	71.556946	865.62103	-1357.6255				276.81805	896.57721	-1248.8207	97.974411	678.9635	-1008.3866	110.0016	747.29028	-1021.2968	152.86716	625.78558	-975.04462	202.09674	470.08664	-956.79242				254.32747	289.37402	-894.33881	175.7395	351.68155	-937.87524	204.88396	262.79684	-884.85443	268.46359	79.178238	-846.60883				278.54807	57.408306	-911.69025	186.87369	72.68306	-819.40204	125.13015	45.129436	-813.94543				173.22336	24.489172	-748.52496	161.15775	623.42719	-1460.1603	98.582901	735.74194	-1413.8021	89.420135	645.74353	-1429.6597	213.40108	487.30664	-1463.9141				248.62846	307.68097	-1531.4868	185.57243	345.73972	-1491.9492	190.74738	269.81418	-1519.6118	265.91028	63.581356	-1567.2362				276.34598	55.217426	-1516.2498	180.26884	71.129936	-1608.4249	122.36114	51.126984	-1612.16				169.468	18.932852	-1668.9988
686	3.425	68.711067	862.10956	-1095.3839	71.876465	865.66779	-1357.613				277.0752	896.6983	-1248.8693	98.424171	678.99707	-1008.3783	110.4875	747.25757	-1021.3395	153.32629	625.76813	-975.11206	202.36839	470.06363	-956.87122				254.48528	289.33856	-894.34595	175.90532	351.69666	-937.84314	205.05	262.79874	-884.85406	268.47009	79.155075	-846.57373				278.57047	57.378925	-911.66583	186.90282	72.677452	-819.39032	125.14161	45.13871	-813.94965				173.22324	24.490561	-748.52655	161.20618	623.44104	-1460.2233	98.758858	735.77802	-1413.7819	89.512047	645.79169	-1429.6544	213.43355	487.31119	-1464.0466				248.65651	307.67041	-1531.5924	185.61749	345.72	-1492.0183	190.79414	269.7999	-1519.6603	265.93903	63.551128	-1567.2751				276.37799	55.195435	-1516.2728	180.28793	71.132965	-1608.4242	122.37646	51.129074	-1612.1326				169.46124	18.946381	-1668.9885
687	3.43	69.084412	862.08997	-1095.3701	72.188934	865.71283	-1357.5979				277.32452	896.82294	-1248.9257	98.878601	679.02777	-1008.3778	110.97941	747.22388	-1021.3882	153.78737	625.74951	-975.18555	202.64012	470.03949	-956.95154				254.64346	289.30261	-894.35266	176.07294	351.71103	-937.81409	205.2177	262.80286	-884.85358	268.47504	79.134682	-846.53711				278.59253	57.350517	-911.64227	186.93129	72.672234	-819.37952	125.15279	45.148098	-813.95447				173.22325	24.492716	-748.52899	161.24155	623.45575	-1460.2913	98.92646	735.8147	-1413.7604	89.593903	645.84161	-1429.6467	213.45311	487.31625	-1464.1896				248.67529	307.66092	-1531.7053	185.65417	345.70096	-1492.0912	190.83391	269.78372	-1519.7113	265.96823	63.522354	-1567.3175				276.40982	55.174278	-1516.2938	180.30791	71.136322	-1608.4237	122.39219	51.130852	-1612.1041				169.45413	18.960285	-1668.9781
688	3.435	69.461014	862.06738	-1095.3583	72.494476	865.75574	-1357.5813				277.56647	896.95007	-1248.9897	99.335785	679.05518	-1008.386	111.4748	747.18927	-1021.4425	154.24796	625.73016	-975.26428	202.91043	470.01407	-957.0329				254.8011	289.26651	-894.35919	176.24168	351.72461	-937.78827	205.38588	262.80911	-884.85327	268.4783	79.11718	-846.49902				278.61465	57.323116	-911.6192	186.95895	72.667473	-819.36987	125.1636	45.157669	-813.96008				173.22331	24.495811	-748.53217	161.26561	623.47101	-1460.3638	99.0867	735.85205	-1413.7388	89.667	645.89294	-1429.6377	213.46121	487.32172	-1464.3418				248.68594	307.65213	-1531.8251	185.6833	345.68265	-1492.1671	190.86746	269.76593	-1519.7644	265.99802	63.495106	-1567.363				276.44174	55.154385	-1516.3146	180.32889	71.140038	-1608.4231	122.40827	51.132572	-1612.0751				169.44667	18.974583	-1668.9679
689	3.44	69.840065	862.04181	-1095.3479	72.793304	865.79608	-1357.5645				277.80133	897.0788	-1249.0604	99.7939	679.07886	-1008.4032	111.97169	747.15387	-1021.5025	154.7056	625.71002	-975.3476	203.17805	469.98724	-957.11469				254.95726	289.23038	-894.3653	176.4109	351.7373	-937.76593	205.55324	262.81723	-884.85309	268.47995	79.102745	-846.45953				278.63739	57.296783	-911.59668	186.98569	72.663315	-819.36157	125.174	45.167461	-813.96643				173.2233	24.5	-748.53632	161.2803	623.48645	-1460.4404	99.240616	735.89026	-1413.7175	89.732872	645.94507	-1429.6279	213.45944	487.32742	-1464.5022				248.68976	307.64386	-1531.9501	185.7059	345.66519	-1492.2458	190.89571	269.74686	-1519.8195	266.02835	63.469471	-1567.4115				276.47418	55.136276	-1516.3364	180.35094	71.144112	-1608.4229	122.42468	51.13446	-1612.0458				169.43896	18.989231	-1668.9579
690	3.445	70.220795	862.01324	-1095.339	73.085655	865.83331	-1357.5486				278.02954	897.20862	-1249.1377	100.25124	679.09869	-1008.4296	112.468	747.11768	-1021.5683	155.15817	625.68939	-975.43463	203.44203	469.95901	-957.19617				255.11142	289.19437	-894.37134	176.58018	351.74881	-937.74756	205.71823	262.82675	-884.85315	268.47992	79.091476	-846.41882				278.66119	57.271576	-911.57458	187.0114	72.65995	-819.35461	125.18404	45.177452	-813.97369				173.22316	24.505384	-748.54132	161.28758	623.50171	-1460.5212	99.389244	735.92902	-1413.6973	89.793213	645.9975	-1429.6178	213.44977	487.3331	-1464.6698				248.68829	307.63599	-1532.0797	185.72316	345.64853	-1492.3269	190.9196	269.72678	-1519.876	266.05927	63.445499	-1567.463				276.50751	55.120625	-1516.3617	180.37399	71.148544	-1608.4229	122.44139	51.136734	-1612.0165				169.43105	19.004141	-1668.9481
691	3.45	70.602394	861.98163	-1095.3312	73.371712	865.8667	-1357.5348				278.25101	897.33905	-1249.2207	100.70624	679.11426	-1008.4655	112.96111	747.08118	-1021.6389	155.60373	625.66833	-975.52448	203.70186	469.92932	-957.27673				255.26324	289.15851	-894.37726	176.74924	351.75897	-937.73352	205.87926	262.83698	-884.85339	268.47864	79.083031	-846.37714				278.68643	57.247524	-911.5531	187.03615	72.657539	-819.34912	125.19373	45.187641	-813.98175				173.22279	24.512032	-748.54718	161.28937	623.51642	-1460.606	99.533752	735.96777	-1413.6782	89.849861	646.04962	-1429.6073	213.43427	487.33853	-1464.8429				248.68317	307.62823	-1532.2122	185.73651	345.63272	-1492.4095	190.94038	269.70609	-1519.9336	266.09082	63.423237	-1567.5171				276.54233	55.108215	-1516.3931	180.39804	71.153259	-1608.4235	122.45835	51.139595	-1611.9875				169.42302	19.019186	-1668.939
692	3.455	70.984085	861.94708	-1095.3242	73.651566	865.89575	-1357.5236				278.46591	897.46967	-1249.3092	101.15745	679.12561	-1008.5109	113.4481	747.04456	-1021.7134	156.04062	625.64716	-975.61621	203.95723	469.89813	-957.35602				255.4127	289.12268	-894.38318	176.91785	351.76746	-937.72449	206.03477	262.84717	-884.85364	268.47684	79.076553	-846.33508				278.71335	57.224571	-911.53198	187.05997	72.656273	-819.34509	125.203	45.19804	-813.99078				173.22218	24.519966	-748.55408	161.2876	623.53027	-1460.6945	99.675262	736.0061	-1413.6608	89.904793	646.10028	-1429.5962	213.41519	487.34357	-1465.02				248.67618	307.62039	-1532.3461	185.74747	345.61801	-1492.4934	190.95918	269.68497	-1519.9916	266.1228	63.402637	-1567.5734				276.57938	55.099651	-1516.4325	180.42299	71.15815	-1608.4247	122.47552	51.143154	-1611.9596				169.41495	19.034201	-1668.9304
693	3.46	71.365074	861.90942	-1095.3177	73.925262	865.91974	-1357.5157				278.67453	897.59991	-1249.4022	101.60358	679.13245	-1008.5656	113.92658	747.00824	-1021.7908	156.46754	625.62579	-975.70905	204.20819	469.86539	-957.43347				255.56004	289.08664	-894.38947	177.08603	351.77383	-937.72101	206.18408	262.85638	-884.85425	268.4758	79.07048	-846.29358				278.74188	57.202576	-911.51129	187.08299	72.656273	-819.34259	125.21181	45.208652	-814.00079				173.2213	24.529158	-748.56189	161.28416	623.54279	-1460.7865	99.814896	736.04327	-1413.6448	89.959991	646.14899	-1429.5839	213.39484	487.34796	-1465.2				248.66916	307.61227	-1532.4796	185.75777	345.60437	-1492.5774	190.97734	269.66388	-1520.0493	266.15521	63.383602	-1567.631				276.61942	55.094894	-1516.4821	180.4487	71.163063	-1608.4268	122.49286	51.147465	-1611.9326				169.40703	19.048969	-1668.9224
694	3.465	71.744583	861.86896	-1095.3108	74.192802	865.93817	-1357.5112				278.87766	897.72925	-1249.4983	102.04345	679.13495	-1008.629	114.39479	746.97241	-1021.8705	156.88345	625.60419	-975.80206	204.45509	469.83099	-957.50854				255.70586	289.05023	-894.39606	177.25389	351.77777	-937.72345	206.32748	262.86371	-884.85565	268.47687	79.062912	-846.2536				278.77209	57.181305	-911.49097	187.10524	72.657646	-819.34155	125.22015	45.219444	-814.01178				173.22011	24.539511	-748.57043	161.28093	623.55396	-1460.8818	99.953659	736.07867	-1413.6307	90.017326	646.1947	-1429.5704	213.37552	487.35147	-1465.3806				248.66391	307.60361	-1532.6115	185.76923	345.59186	-1492.6608	190.99606	269.64297	-1520.1068	266.18781	63.366005	-1567.6899				276.6629	55.093086	-1516.5415	180.47498	71.167862	-1608.4301	122.51028	51.152485	-1611.9071				169.39931	19.063232	-1668.9152
